<svg fill="none" xmlns="http://www.w3.org/2000/svg" viewBox="0 0 112 16"><path d="M68.44 12v-8.91h-.85v3.79q-.27-.41-.64-.69-.17-.13-.37-.24l-.1-.04q-.58-.28-1.29-.28-.7 0-1.29.25-.17.07-.32.16-.31.17-.56.41-.33.31-.57.72l-.05.1q-.35.7-.35 1.57 0 .85.34 1.54l.06.13q.23.41.56.71.25.25.57.43.16.09.33.16.59.24 1.28.24.74 0 1.33-.28l.09-.05q.23-.12.43-.28.34-.29.59-.69v1.25h.81Zm-59.28 0v-8.4h-.87v3.74h-5.26v-3.74h-.89v8.4h.89v-3.88h5.26v3.88h.87Zm1.42-7.64h2.95v7.64h.89v-7.64h2.95v-.76h-6.79v.76Zm16.93 7.64v-8.4h-.73l-3.61 6.22-3.65-6.22h-.73v8.4h.85v-6.69l3.3 5.62h.42l3.3-5.66v6.73h.85Zm3.62-8.4h-.88v8.4h5.59v-.77h-4.71v-7.63Zm9.92 6.15h4.68l1 2.25h.94l-3.84-8.4h-.87l-3.85 8.4h.93l1.01-2.25Zm2.34-5.23 2.01 4.51h-4.03l2.02-4.51Zm6.53 7.21q.68.32 1.52.32.8 0 1.45-.31.34-.17.6-.42.24-.22.42-.51l-.64-.44q-.21.33-.51.54-.13.09-.28.16l-.17.07q-.4.16-.87.16-.57 0-1.04-.21-.1-.04-.19-.1-.24-.13-.44-.31-.24-.24-.42-.55-.3-.56-.3-1.29 0-.7.29-1.25l.01-.03q.19-.34.46-.59.18-.16.4-.28l.2-.11q.47-.2 1.03-.2.43 0 .82.14l.22.09q.16.08.29.18.29.21.5.53l.64-.44q-.19-.31-.44-.54-.26-.23-.57-.39-.64-.32-1.46-.32-.83 0-1.51.33l-.17.08q-.36.2-.64.48-.3.29-.52.66l-.11.23q-.3.64-.3 1.43 0 .75.27 1.38l.14.28q.23.39.54.69.28.26.62.46l.16.08Zm9.76-5.48q-.66-.62-1.89-.62-.72 0-1.37.21l-.05.02q-.67.22-1.15.63l.38.63q.4-.35.95-.54.2-.08.41-.12.36-.08.74-.08.88 0 1.33.43l.11.1q.35.42.35 1.14v.38h-2q-1.27 0-1.86.49-.24.21-.39.47-.19.37-.19.83 0 .45.18.8.16.3.44.53.63.5 1.69.5.76 0 1.32-.27.43-.21.7-.55l.15-.22v.99h.81v-3.92q0-1.1-.54-1.71l-.12-.12Zm11.35 2.85h5.28l.02-.26q0-.92-.38-1.63l-.02-.03q-.23-.43-.56-.74-.24-.23-.53-.4l-.3-.15q-.58-.26-1.27-.26-.67 0-1.24.24l-.34.17q-.27.16-.5.37-.36.33-.61.77l-.07.14q-.33.68-.33 1.52 0 .77.29 1.4l.13.26q.19.33.45.6.31.32.72.54l.03.01q.74.4 1.7.4.75 0 1.38-.26.43-.18.76-.47.16-.14.29-.3l-.48-.55q-.21.24-.46.41-.18.12-.39.21-.49.21-1.08.21-.79 0-1.38-.35-.18-.11-.35-.26-.25-.22-.42-.49-.29-.47-.34-1.1Zm16.53-2.99q-.63-.48-1.62-.48-.81 0-1.44.33l-.06.03q-.41.22-.7.55-.17.2-.3.43-.19-.45-.53-.75-.15-.14-.34-.25-.58-.34-1.37-.34-.78 0-1.38.32-.32.16-.56.4-.22.21-.38.49v-1.16h-.81v6.32h.85v-3.32q0-.98.48-1.57l.09-.1q.15-.16.32-.28.5-.33 1.22-.33t1.16.35l.19.17q.48.52.48 1.5v3.58h.85v-3.32q0-.99.49-1.59l.07-.08q.14-.15.3-.26.5-.35 1.25-.35.69 0 1.13.33l.21.19q.47.52.47 1.5v3.58h.85v-3.66q0-1.31-.65-1.99l-.03-.03q-.11-.11-.24-.21Zm5.27 6.64 3.15-7.07h-.84l-2.37 5.37-2.38-5.37h-.89l2.82 6.3-.27.62q-.27.57-.58.81l-.16.11q-.25.13-.57.13-.32 0-.6-.11-.3-.12-.55-.37l-.4.64.21.18q.21.15.47.25.4.14.86.14.57 0 1.01-.24l.2-.13q.5-.37.89-1.26Zm-20.59-6.15q.46-.23 1.03-.23.6 0 1.07.24.25.14.47.34.18.17.32.38.32.48.38 1.14h-4.48q.06-.66.39-1.14.13-.21.32-.38.23-.22.5-.35Zm-6.04 4.52q-.43.18-.94.18-.54 0-1-.2l-.2-.11q-.19-.11-.36-.25-.29-.25-.49-.61l-.02-.05q-.28-.55-.28-1.24 0-.7.29-1.25l.01-.03q.21-.37.51-.63.15-.14.34-.24l.21-.11q.45-.2.99-.2.5 0 .92.17l.28.14q.19.11.36.26.28.25.48.61l.02.05q.28.54.28 1.23 0 .68-.27 1.22l-.03.07q-.19.35-.47.59-.17.16-.37.27-.13.08-.26.13Zm-7.49-.06q-.51.32-1.22.32-.76 0-1.18-.31-.19-.15-.29-.33-.13-.24-.13-.54 0-.37.17-.62.36-.51 1.45-.51h1.98v1.03q-.19.47-.52.77-.12.1-.25.18l-.01.01Z" fill="#593CAC" fill-rule="evenodd"/><path d="m111.21 5.75-5.24-3.26-5.19 3.26v-4.35l5.22-.57 5.21.57v4.35Zm0 .57-2.09 1.3-3.14-1.97-.01.57 2.69 1.68-.46.29-2.22-1.39-.01.58 1.75 1.09-.41.29-.01.01-1.32-.82-.01.57.87.54-.88.56-5.17-3.24 5.18-3.27 5.24 3.21Zm0 5.45-5.21 3.26-5.22-3.26v-4.75l5.19 3.25.01.59-3.56-2.23-.01.57 3.58 2.27.01.6-3.58-2.24v.58l3.58 2.26 3.6-2.27v-2.45l1.61-1.01v4.83Zm-5.21-11.77-6 .66v11.58l6 3.76 6-3.76v-11.58l-6-.66Z" fill="#593CAC"/></svg>